<svg xmlns="http://www.w3.org/2000/svg" xmlns:xlink="http://www.w3.org/1999/xlink" width="500" zoomAndPan="magnify" viewBox="0 0 375 374.999991" height="500" preserveAspectRatio="xMidYMid meet" version="1.2"><defs><clipPath id="a758e5a972"><path d="M 60 194 L 315 194 L 315 337.5 L 60 337.5 Z M 60 194 "/></clipPath><clipPath id="40eed6e345"><path d="M 85 37.5 L 275 37.5 L 275 219 L 85 219 Z M 85 37.5 "/></clipPath></defs><g id="8b155a60b0"><path style=" stroke:none;fill-rule:nonzero;fill:#989898;fill-opacity:1;" d="M 180.347656 84.878906 C 156.421875 84.878906 136.71875 104.347656 136.71875 128.273438 C 136.71875 152.199219 156.1875 171.667969 180.347656 171.667969 C 204.269531 171.667969 223.972656 152.199219 223.972656 128.273438 C 223.738281 104.582031 204.269531 84.878906 180.347656 84.878906 Z M 202.863281 122.410156 L 193.011719 132.027344 L 195.359375 145.398438 C 195.828125 147.742188 194.417969 148.679688 192.308594 147.507812 L 180.113281 141.175781 L 168.148438 147.742188 C 166.039062 148.914062 164.863281 147.742188 165.101562 145.632812 L 167.445312 132.261719 L 157.59375 122.644531 C 155.953125 121.003906 156.421875 119.59375 158.765625 119.125 L 172.371094 117.25 L 178.46875 105.054688 C 179.40625 102.941406 181.050781 102.941406 182.222656 105.054688 L 188.320312 117.25 L 201.925781 119.125 C 203.800781 119.359375 204.503906 121.003906 202.863281 122.410156 Z M 202.863281 122.410156 "/><g clip-rule="nonzero" clip-path="url(#a758e5a972)"><path style=" stroke:none;fill-rule:nonzero;fill:#989898;fill-opacity:1;" d="M 263.144531 194.417969 C 259.390625 196.53125 255.640625 198.40625 251.652344 200.050781 C 247.898438 201.457031 244.144531 202.628906 241.097656 204.972656 C 234.527344 209.898438 231.246094 217.875 224.441406 222.800781 C 219.515625 226.320312 214.121094 229.132812 208.023438 229.835938 C 201.691406 230.542969 197.46875 227.726562 191.605469 225.617188 C 188.085938 224.441406 182.691406 224.207031 180.347656 224.207031 C 172.605469 224.207031 165.570312 229.367188 157.828125 230.074219 C 144.691406 231.246094 133.199219 223.269531 124.988281 213.652344 C 122.410156 210.839844 120.535156 207.554688 118.1875 204.503906 C 116.3125 202.160156 113.027344 201.691406 110.214844 200.753906 L 62.363281 302.082031 C 59.78125 307.710938 60.957031 310.996094 64.941406 310.996094 C 66.351562 310.996094 67.992188 310.527344 70.105469 309.820312 L 99.890625 297.390625 C 101.769531 296.6875 103.878906 296.21875 105.757812 296.21875 C 111.621094 296.21875 117.25 299.734375 119.359375 305.601562 L 129.210938 331.636719 C 130.621094 335.625 132.730469 337.5 135.078125 337.5 C 137.1875 337.5 139.296875 335.625 140.941406 331.871094 L 187.851562 230.074219 L 234.761719 331.871094 C 236.40625 335.625 238.515625 337.5 240.628906 337.5 C 242.738281 337.5 244.847656 335.625 246.492188 331.636719 L 256.34375 305.601562 C 258.6875 299.734375 264.082031 296.21875 269.945312 296.21875 C 271.824219 296.21875 273.933594 296.6875 275.8125 297.390625 L 304.894531 309.585938 C 307.007812 310.527344 308.648438 310.761719 310.058594 310.761719 C 314.042969 310.761719 315.21875 307.476562 312.636719 301.847656 Z M 263.144531 194.417969 "/></g><g clip-rule="nonzero" clip-path="url(#40eed6e345)"><path style=" stroke:none;fill-rule:nonzero;fill:#989898;fill-opacity:1;" d="M 274.636719 128.507812 C 274.636719 118.890625 263.378906 110.917969 260.566406 102.238281 C 257.75 93.089844 261.972656 80.191406 256.578125 72.683594 C 250.949219 64.941406 237.34375 65.179688 229.835938 59.78125 C 222.332031 54.386719 218.34375 41.019531 209.429688 38.203125 C 208.023438 37.734375 206.851562 37.5 205.445312 37.5 C 197.46875 37.5 188.554688 43.363281 180.347656 43.363281 C 172.136719 43.363281 162.988281 37.5 155.011719 37.5 C 153.605469 37.5 152.199219 37.734375 151.027344 38.203125 C 142.113281 41.253906 138.125 54.386719 130.621094 59.78125 C 123.113281 65.414062 109.507812 65.179688 103.878906 72.683594 C 98.484375 80.191406 102.941406 93.089844 99.890625 102.238281 C 97.078125 110.917969 85.820312 118.890625 85.820312 128.507812 C 85.820312 138.125 97.078125 146.101562 99.890625 154.777344 C 102.707031 163.925781 98.484375 176.828125 103.878906 184.332031 C 107.632812 189.726562 114.199219 189.726562 119.828125 191.839844 C 125.695312 194.417969 131.558594 197 135.546875 202.160156 C 140 207.789062 143.519531 216.9375 151.730469 217.875 C 158.0625 218.578125 164.394531 216.46875 170.496094 214.355469 C 173.542969 213.417969 176.59375 212.011719 179.875 212.011719 C 183.863281 211.777344 187.617188 213.183594 191.371094 214.589844 C 196.53125 216.46875 200.753906 218.34375 206.617188 217.875 C 213.417969 217.40625 217.640625 212.714844 221.394531 207.320312 C 225.851562 200.988281 230.542969 195.828125 237.8125 192.308594 C 243.207031 189.726562 250.007812 189.726562 254.933594 185.976562 C 260.800781 181.519531 259.625 173.542969 259.859375 166.976562 C 259.859375 162.988281 259.859375 158.296875 261.035156 154.542969 C 263.378906 145.867188 274.636719 138.125 274.636719 128.507812 Z M 180.347656 182.691406 C 150.324219 182.691406 125.929688 158.296875 125.929688 128.273438 C 125.929688 98.25 150.324219 73.855469 180.347656 73.855469 C 210.371094 74.089844 234.527344 98.484375 234.527344 128.507812 C 234.527344 158.53125 210.371094 182.691406 180.347656 182.691406 Z M 180.347656 182.691406 "/></g></g></svg>