<svg xmlns="http://www.w3.org/2000/svg" xmlns:xlink="http://www.w3.org/1999/xlink" width="500" zoomAndPan="magnify" viewBox="0 0 375 374.999991" height="500" preserveAspectRatio="xMidYMid meet" version="1.2"><defs><clipPath id="42a3b9c6f8"><path d="M 30.769531 35 L 344.269531 35 L 344.269531 349 L 30.769531 349 Z M 30.769531 35 "/></clipPath></defs><g id="6dd7550970"><g clip-rule="nonzero" clip-path="url(#42a3b9c6f8)"><path style=" stroke:none;fill-rule:nonzero;fill:#989898;fill-opacity:1;" d="M 344.15625 191.9375 C 344.15625 194.503906 344.09375 197.066406 343.96875 199.625 C 343.839844 202.1875 343.652344 204.746094 343.402344 207.296875 C 343.148438 209.847656 342.835938 212.394531 342.460938 214.929688 C 342.082031 217.464844 341.644531 219.992188 341.144531 222.507812 C 340.644531 225.023438 340.082031 227.523438 339.460938 230.011719 C 338.835938 232.5 338.152344 234.96875 337.410156 237.421875 C 336.664062 239.878906 335.859375 242.3125 334.996094 244.726562 C 334.132812 247.140625 333.210938 249.53125 332.230469 251.902344 C 331.246094 254.269531 330.207031 256.613281 329.113281 258.933594 C 328.015625 261.25 326.863281 263.542969 325.652344 265.800781 C 324.445312 268.0625 323.179688 270.292969 321.863281 272.496094 C 320.542969 274.695312 319.171875 276.859375 317.75 278.992188 C 316.324219 281.125 314.847656 283.21875 313.320312 285.28125 C 311.792969 287.339844 310.214844 289.359375 308.589844 291.34375 C 306.960938 293.324219 305.289062 295.265625 303.566406 297.167969 C 301.84375 299.066406 300.074219 300.921875 298.261719 302.738281 C 296.449219 304.550781 294.59375 306.316406 292.691406 308.039062 C 290.792969 309.761719 288.851562 311.4375 286.867188 313.0625 C 284.886719 314.691406 282.863281 316.265625 280.804688 317.796875 C 278.746094 319.324219 276.648438 320.796875 274.515625 322.222656 C 272.386719 323.648438 270.21875 325.019531 268.019531 326.339844 C 265.820312 327.65625 263.589844 328.921875 261.328125 330.128906 C 259.066406 331.335938 256.777344 332.492188 254.457031 333.585938 C 252.140625 334.683594 249.796875 335.722656 247.425781 336.703125 C 245.058594 337.683594 242.667969 338.605469 240.25 339.472656 C 237.835938 340.335938 235.402344 341.140625 232.949219 341.882812 C 230.496094 342.628906 228.023438 343.3125 225.535156 343.933594 C 223.050781 344.558594 220.546875 345.121094 218.03125 345.621094 C 215.519531 346.121094 212.992188 346.558594 210.457031 346.933594 C 207.917969 347.3125 205.375 347.625 202.820312 347.875 C 200.269531 348.128906 197.714844 348.316406 195.152344 348.441406 C 192.589844 348.566406 190.027344 348.632812 187.464844 348.632812 C 184.898438 348.632812 182.335938 348.566406 179.773438 348.441406 C 177.214844 348.316406 174.65625 348.128906 172.105469 347.875 C 169.554688 347.625 167.007812 347.3125 164.472656 346.933594 C 161.933594 346.558594 159.410156 346.121094 156.894531 345.621094 C 154.378906 345.121094 151.878906 344.558594 149.390625 343.933594 C 146.902344 343.3125 144.433594 342.628906 141.976562 341.882812 C 139.523438 341.140625 137.089844 340.335938 134.675781 339.472656 C 132.261719 338.605469 129.867188 337.683594 127.5 336.703125 C 125.128906 335.722656 122.785156 334.683594 120.46875 333.585938 C 118.152344 332.492188 115.859375 331.335938 113.597656 330.128906 C 111.335938 328.921875 109.105469 327.65625 106.90625 326.339844 C 104.707031 325.019531 102.542969 323.648438 100.410156 322.222656 C 98.277344 320.796875 96.179688 319.324219 94.121094 317.796875 C 92.0625 316.265625 90.042969 314.691406 88.058594 313.0625 C 86.078125 311.4375 84.136719 309.761719 82.234375 308.039062 C 80.335938 306.316406 78.476562 304.550781 76.664062 302.738281 C 74.851562 300.921875 73.085938 299.066406 71.363281 297.167969 C 69.640625 295.265625 67.964844 293.324219 66.339844 291.34375 C 64.710938 289.359375 63.132812 287.339844 61.605469 285.28125 C 60.078125 283.21875 58.601562 281.125 57.179688 278.992188 C 55.753906 276.859375 54.382812 274.695312 53.0625 272.496094 C 51.746094 270.292969 50.480469 268.0625 49.273438 265.800781 C 48.0625 263.542969 46.910156 261.25 45.816406 258.933594 C 44.71875 256.613281 43.679688 254.269531 42.699219 251.902344 C 41.71875 249.53125 40.792969 247.140625 39.929688 244.726562 C 39.066406 242.3125 38.261719 239.878906 37.519531 237.421875 C 36.773438 234.96875 36.089844 232.5 35.464844 230.011719 C 34.84375 227.523438 34.28125 225.023438 33.78125 222.507812 C 33.28125 219.992188 32.84375 217.464844 32.46875 214.929688 C 32.089844 212.394531 31.777344 209.847656 31.527344 207.296875 C 31.273438 204.746094 31.085938 202.1875 30.960938 199.625 C 30.832031 197.066406 30.769531 194.503906 30.769531 191.9375 C 30.769531 191.203125 30.84375 190.476562 30.984375 189.753906 C 31.128906 189.035156 31.339844 188.335938 31.621094 187.65625 C 31.902344 186.976562 32.25 186.332031 32.65625 185.71875 C 33.066406 185.109375 33.53125 184.542969 34.050781 184.023438 C 34.570312 183.503906 35.132812 183.039062 35.746094 182.632812 C 36.355469 182.222656 37 181.878906 37.679688 181.597656 C 38.359375 181.316406 39.058594 181.105469 39.78125 180.960938 C 40.5 180.816406 41.226562 180.746094 41.964844 180.746094 C 42.699219 180.746094 43.425781 180.816406 44.148438 180.960938 C 44.867188 181.105469 45.566406 181.316406 46.246094 181.597656 C 46.925781 181.878906 47.570312 182.222656 48.179688 182.632812 C 48.792969 183.039062 49.359375 183.503906 49.878906 184.023438 C 50.398438 184.542969 50.859375 185.109375 51.269531 185.71875 C 51.675781 186.332031 52.023438 186.976562 52.304688 187.65625 C 52.585938 188.335938 52.796875 189.035156 52.941406 189.753906 C 53.082031 190.476562 53.15625 191.203125 53.15625 191.9375 C 53.152344 194.414062 53.214844 196.886719 53.347656 199.359375 C 53.480469 201.832031 53.683594 204.296875 53.953125 206.757812 C 54.222656 209.21875 54.558594 211.671875 54.960938 214.113281 C 55.367188 216.554688 55.839844 218.984375 56.375 221.402344 C 56.914062 223.816406 57.519531 226.21875 58.191406 228.601562 C 58.863281 230.984375 59.597656 233.347656 60.398438 235.6875 C 61.203125 238.03125 62.066406 240.347656 62.996094 242.644531 C 63.925781 244.9375 64.917969 247.203125 65.972656 249.445312 C 67.027344 251.683594 68.144531 253.894531 69.320312 256.070312 C 70.496094 258.25 71.730469 260.394531 73.027344 262.503906 C 74.320312 264.613281 75.675781 266.683594 77.082031 268.71875 C 78.492188 270.753906 79.957031 272.75 81.476562 274.703125 C 82.996094 276.660156 84.570312 278.570312 86.195312 280.4375 C 87.820312 282.304688 89.496094 284.125 91.21875 285.902344 C 92.945312 287.675781 94.71875 289.402344 96.539062 291.078125 C 98.359375 292.757812 100.226562 294.382812 102.136719 295.957031 C 104.046875 297.53125 106 299.050781 107.996094 300.515625 C 109.988281 301.984375 112.023438 303.394531 114.097656 304.746094 C 116.167969 306.101562 118.277344 307.398438 120.421875 308.632812 C 122.566406 309.871094 124.742188 311.050781 126.949219 312.167969 C 129.160156 313.285156 131.398438 314.339844 133.664062 315.332031 C 135.933594 316.328125 138.226562 317.257812 140.542969 318.125 C 142.863281 318.992188 145.203125 319.796875 147.566406 320.53125 C 149.929688 321.269531 152.3125 321.941406 154.710938 322.550781 C 157.109375 323.15625 159.527344 323.695312 161.957031 324.167969 C 164.386719 324.640625 166.828125 325.046875 169.28125 325.386719 C 171.730469 325.726562 174.191406 325.996094 176.660156 326.199219 C 179.125 326.402344 181.597656 326.535156 184.070312 326.601562 C 186.546875 326.667969 189.019531 326.664062 191.496094 326.59375 C 193.96875 326.523438 196.441406 326.386719 198.90625 326.179688 C 201.375 325.972656 203.835938 325.695312 206.285156 325.355469 C 208.738281 325.011719 211.179688 324.601562 213.605469 324.125 C 216.035156 323.644531 218.449219 323.101562 220.847656 322.492188 C 223.25 321.878906 225.628906 321.203125 227.992188 320.460938 C 230.351562 319.71875 232.691406 318.914062 235.007812 318.042969 C 237.324219 317.171875 239.617188 316.234375 241.882812 315.238281 C 244.148438 314.238281 246.382812 313.179688 248.589844 312.058594 C 250.796875 310.9375 252.972656 309.757812 255.113281 308.515625 C 257.257812 307.273438 259.363281 305.972656 261.433594 304.617188 C 263.503906 303.257812 265.535156 301.84375 267.527344 300.375 C 269.519531 298.90625 271.46875 297.382812 273.375 295.804688 C 275.285156 294.226562 277.148438 292.597656 278.964844 290.917969 C 280.78125 289.238281 282.554688 287.507812 284.273438 285.730469 C 285.996094 283.953125 287.667969 282.128906 289.292969 280.257812 C 290.914062 278.386719 292.480469 276.472656 294 274.515625 C 295.515625 272.558594 296.976562 270.5625 298.382812 268.523438 C 299.789062 266.488281 301.136719 264.410156 302.425781 262.300781 C 303.71875 260.1875 304.949219 258.042969 306.121094 255.859375 C 307.296875 253.679688 308.40625 251.46875 309.457031 249.230469 C 310.507812 246.988281 311.496094 244.71875 312.421875 242.421875 C 313.347656 240.125 314.210938 237.804688 315.007812 235.460938 C 315.804688 233.117188 316.535156 230.753906 317.203125 228.371094 C 317.871094 225.988281 318.46875 223.585938 319.003906 221.167969 C 319.539062 218.75 320.003906 216.320312 320.40625 213.878906 C 320.804688 211.4375 321.136719 208.984375 321.402344 206.523438 C 321.667969 204.0625 321.863281 201.59375 321.992188 199.121094 C 322.121094 196.648438 322.179688 194.175781 322.171875 191.699219 C 322.164062 189.222656 322.089844 186.75 321.945312 184.28125 C 321.800781 181.808594 321.585938 179.34375 321.304688 176.882812 C 321.027344 174.421875 320.675781 171.972656 320.261719 169.535156 C 319.84375 167.09375 319.363281 164.667969 318.8125 162.253906 C 318.261719 159.839844 317.644531 157.441406 316.964844 155.0625 C 316.28125 152.683594 315.535156 150.324219 314.722656 147.984375 C 313.90625 145.648438 313.03125 143.332031 312.089844 141.042969 C 311.152344 138.753906 310.148438 136.492188 309.082031 134.253906 C 308.015625 132.019531 306.890625 129.816406 305.703125 127.644531 C 304.515625 125.472656 303.269531 123.335938 301.964844 121.230469 C 300.660156 119.128906 299.300781 117.0625 297.878906 115.03125 C 296.460938 113.003906 294.988281 111.015625 293.457031 109.070312 C 291.929688 107.121094 290.347656 105.21875 288.714844 103.359375 C 287.078125 101.5 285.394531 99.6875 283.660156 97.917969 C 281.929688 96.152344 280.144531 94.433594 278.316406 92.765625 C 276.488281 91.097656 274.613281 89.480469 272.695312 87.917969 C 270.777344 86.351562 268.820312 84.839844 266.816406 83.382812 C 264.816406 81.925781 262.777344 80.527344 260.695312 79.183594 C 258.617188 77.839844 256.503906 76.554688 254.351562 75.324219 C 252.203125 74.097656 250.019531 72.929688 247.808594 71.824219 C 245.59375 70.71875 243.347656 69.671875 241.078125 68.691406 C 238.804688 67.707031 236.507812 66.785156 234.183594 65.929688 C 231.863281 65.074219 229.519531 64.28125 227.152344 63.554688 C 224.785156 62.828125 222.398438 62.167969 219.996094 61.574219 C 217.59375 60.980469 215.175781 60.449219 212.746094 59.988281 C 210.3125 59.527344 207.871094 59.132812 205.414062 58.804688 C 202.960938 58.480469 200.5 58.222656 198.03125 58.03125 C 195.5625 57.839844 193.09375 57.714844 190.617188 57.664062 C 188.140625 57.609375 185.667969 57.621094 183.195312 57.703125 C 180.71875 57.785156 178.25 57.9375 175.785156 58.15625 C 173.316406 58.375 170.859375 58.660156 168.410156 59.015625 C 165.960938 59.371094 163.519531 59.792969 161.09375 60.28125 C 158.667969 60.769531 156.257812 61.324219 153.859375 61.945312 C 151.464844 62.570312 149.085938 63.257812 146.730469 64.011719 C 144.371094 64.765625 142.035156 65.582031 139.722656 66.464844 C 137.410156 67.347656 135.121094 68.292969 132.859375 69.300781 C 130.601562 70.308594 128.371094 71.378906 126.167969 72.511719 C 123.964844 73.644531 121.796875 74.835938 119.660156 76.085938 C 117.527344 77.339844 115.425781 78.648438 113.363281 80.015625 L 120.308594 80.015625 C 121.042969 80.015625 121.773438 80.085938 122.492188 80.230469 C 123.214844 80.375 123.914062 80.585938 124.59375 80.867188 C 125.273438 81.148438 125.917969 81.492188 126.527344 81.902344 C 127.140625 82.308594 127.703125 82.773438 128.222656 83.292969 C 128.742188 83.8125 129.207031 84.378906 129.617188 84.988281 C 130.023438 85.601562 130.367188 86.246094 130.648438 86.925781 C 130.929688 87.601562 131.144531 88.304688 131.285156 89.023438 C 131.429688 89.746094 131.5 90.472656 131.5 91.207031 C 131.5 91.941406 131.429688 92.671875 131.285156 93.390625 C 131.144531 94.113281 130.929688 94.8125 130.648438 95.492188 C 130.367188 96.167969 130.023438 96.8125 129.617188 97.425781 C 129.207031 98.035156 128.742188 98.601562 128.222656 99.121094 C 127.703125 99.640625 127.140625 100.105469 126.527344 100.511719 C 125.917969 100.921875 125.273438 101.265625 124.59375 101.546875 C 123.914062 101.828125 123.214844 102.042969 122.492188 102.183594 C 121.773438 102.328125 121.042969 102.398438 120.308594 102.398438 L 86.734375 102.398438 C 85.996094 102.398438 85.269531 102.328125 84.546875 102.1875 C 83.828125 102.042969 83.128906 101.832031 82.449219 101.550781 C 81.769531 101.269531 81.125 100.921875 80.511719 100.515625 C 79.902344 100.105469 79.335938 99.644531 78.816406 99.125 C 78.296875 98.605469 77.832031 98.039062 77.425781 97.425781 C 77.015625 96.816406 76.671875 96.171875 76.390625 95.492188 C 76.109375 94.8125 75.898438 94.113281 75.753906 93.390625 C 75.609375 92.671875 75.539062 91.941406 75.539062 91.207031 L 75.539062 57.628906 C 75.539062 56.894531 75.613281 56.167969 75.753906 55.445312 C 75.898438 54.726562 76.109375 54.027344 76.390625 53.347656 C 76.671875 52.667969 77.019531 52.023438 77.425781 51.414062 C 77.835938 50.800781 78.296875 50.234375 78.816406 49.714844 C 79.339844 49.195312 79.902344 48.734375 80.515625 48.324219 C 81.125 47.914062 81.769531 47.570312 82.449219 47.289062 C 83.128906 47.007812 83.828125 46.796875 84.550781 46.652344 C 85.269531 46.507812 85.996094 46.4375 86.734375 46.4375 C 87.46875 46.4375 88.195312 46.507812 88.917969 46.652344 C 89.636719 46.796875 90.335938 47.007812 91.015625 47.289062 C 91.695312 47.570312 92.339844 47.914062 92.949219 48.324219 C 93.5625 48.734375 94.128906 49.195312 94.648438 49.714844 C 95.167969 50.234375 95.628906 50.800781 96.039062 51.414062 C 96.445312 52.023438 96.792969 52.667969 97.074219 53.347656 C 97.355469 54.027344 97.566406 54.726562 97.710938 55.445312 C 97.851562 56.167969 97.925781 56.894531 97.925781 57.628906 L 97.925781 63.382812 C 100.84375 61.347656 103.828125 59.414062 106.878906 57.582031 C 109.929688 55.753906 113.039062 54.027344 116.210938 52.40625 C 119.378906 50.789062 122.597656 49.277344 125.867188 47.878906 C 129.140625 46.480469 132.457031 45.191406 135.816406 44.019531 C 139.175781 42.84375 142.570312 41.785156 146 40.84375 C 149.429688 39.898438 152.890625 39.074219 156.378906 38.367188 C 159.867188 37.660156 163.371094 37.074219 166.898438 36.605469 C 170.425781 36.136719 173.96875 35.789062 177.519531 35.5625 C 181.070312 35.335938 184.625 35.230469 188.183594 35.246094 C 191.742188 35.261719 195.292969 35.398438 198.84375 35.65625 C 202.390625 35.914062 205.929688 36.292969 209.453125 36.792969 C 212.972656 37.289062 216.476562 37.90625 219.957031 38.644531 C 223.4375 39.382812 226.890625 40.238281 230.3125 41.210938 C 233.738281 42.183594 237.121094 43.269531 240.472656 44.472656 C 243.820312 45.675781 247.125 46.992188 250.382812 48.421875 C 253.640625 49.847656 256.847656 51.386719 260.003906 53.03125 C 263.15625 54.679688 266.25 56.433594 269.285156 58.289062 C 272.320312 60.148438 275.289062 62.105469 278.191406 64.167969 C 281.09375 66.226562 283.921875 68.382812 286.675781 70.636719 C 289.429688 72.886719 292.105469 75.230469 294.699219 77.667969 C 297.292969 80.101562 299.800781 82.621094 302.226562 85.226562 C 304.648438 87.832031 306.980469 90.519531 309.21875 93.285156 C 311.460938 96.050781 313.605469 98.886719 315.648438 101.796875 C 317.695312 104.707031 319.640625 107.683594 321.484375 110.730469 C 323.328125 113.773438 325.066406 116.875 326.699219 120.035156 C 328.332031 123.199219 329.855469 126.414062 331.269531 129.679688 C 332.683594 132.941406 333.984375 136.253906 335.171875 139.609375 C 336.359375 142.960938 337.429688 146.351562 338.386719 149.78125 C 339.34375 153.207031 340.183594 156.664062 340.902344 160.148438 C 341.625 163.632812 342.226562 167.136719 342.710938 170.664062 C 343.191406 174.1875 343.554688 177.726562 343.796875 181.277344 C 344.035156 184.824219 344.15625 188.378906 344.15625 191.9375 Z M 288.195312 191.9375 C 288.195312 193.585938 288.152344 195.234375 288.074219 196.882812 C 287.992188 198.527344 287.871094 200.171875 287.710938 201.8125 C 287.546875 203.453125 287.347656 205.089844 287.105469 206.71875 C 286.863281 208.347656 286.582031 209.972656 286.257812 211.589844 C 285.9375 213.207031 285.578125 214.816406 285.175781 216.414062 C 284.773438 218.011719 284.335938 219.601562 283.855469 221.179688 C 283.378906 222.757812 282.863281 224.320312 282.304688 225.875 C 281.75 227.425781 281.15625 228.964844 280.527344 230.488281 C 279.894531 232.007812 279.226562 233.515625 278.523438 235.007812 C 277.816406 236.496094 277.078125 237.96875 276.300781 239.421875 C 275.523438 240.875 274.710938 242.308594 273.863281 243.722656 C 273.015625 245.136719 272.132812 246.53125 271.21875 247.902344 C 270.300781 249.273438 269.351562 250.621094 268.371094 251.945312 C 267.390625 253.269531 266.375 254.566406 265.328125 255.839844 C 264.285156 257.117188 263.207031 258.363281 262.101562 259.585938 C 260.992188 260.804688 259.855469 262 258.691406 263.164062 C 257.523438 264.332031 256.332031 265.46875 255.109375 266.574219 C 253.890625 267.683594 252.640625 268.757812 251.367188 269.804688 C 250.09375 270.851562 248.792969 271.863281 247.46875 272.847656 C 246.144531 273.828125 244.796875 274.777344 243.425781 275.691406 C 242.054688 276.609375 240.664062 277.492188 239.25 278.339844 C 237.835938 279.1875 236.402344 279.996094 234.949219 280.773438 C 233.492188 281.550781 232.023438 282.292969 230.53125 282.996094 C 229.042969 283.703125 227.535156 284.371094 226.011719 285 C 224.488281 285.632812 222.949219 286.226562 221.398438 286.78125 C 219.847656 287.335938 218.28125 287.851562 216.703125 288.332031 C 215.125 288.808594 213.539062 289.25 211.9375 289.652344 C 210.339844 290.050781 208.730469 290.414062 207.113281 290.734375 C 205.5 291.054688 203.875 291.335938 202.242188 291.578125 C 200.613281 291.820312 198.976562 292.023438 197.335938 292.183594 C 195.695312 292.347656 194.050781 292.46875 192.40625 292.546875 C 190.757812 292.628906 189.113281 292.667969 187.464844 292.667969 C 185.816406 292.667969 184.167969 292.628906 182.519531 292.546875 C 180.875 292.46875 179.230469 292.347656 177.589844 292.183594 C 175.949219 292.023438 174.3125 291.820312 172.683594 291.578125 C 171.050781 291.335938 169.429688 291.054688 167.8125 290.734375 C 166.195312 290.414062 164.585938 290.050781 162.988281 289.652344 C 161.390625 289.25 159.800781 288.808594 158.222656 288.332031 C 156.644531 287.851562 155.082031 287.335938 153.527344 286.78125 C 151.976562 286.226562 150.4375 285.632812 148.914062 285 C 147.390625 284.371094 145.886719 283.703125 144.394531 282.996094 C 142.90625 282.292969 141.433594 281.550781 139.980469 280.773438 C 138.523438 279.996094 137.089844 279.1875 135.675781 278.339844 C 134.261719 277.492188 132.871094 276.609375 131.5 275.691406 C 130.128906 274.777344 128.78125 273.828125 127.457031 272.847656 C 126.132812 271.863281 124.835938 270.851562 123.558594 269.804688 C 122.285156 268.757812 121.039062 267.683594 119.816406 266.574219 C 118.59375 265.46875 117.402344 264.332031 116.234375 263.164062 C 115.070312 262 113.933594 260.804688 112.828125 259.585938 C 111.71875 258.363281 110.644531 257.117188 109.597656 255.839844 C 108.550781 254.566406 107.539062 253.269531 106.554688 251.945312 C 105.574219 250.621094 104.625 249.273438 103.707031 247.902344 C 102.792969 246.53125 101.910156 245.136719 101.0625 243.722656 C 100.214844 242.308594 99.402344 240.875 98.625 239.421875 C 97.847656 237.96875 97.109375 236.496094 96.402344 235.007812 C 95.699219 233.515625 95.03125 232.007812 94.398438 230.488281 C 93.769531 228.964844 93.175781 227.425781 92.621094 225.875 C 92.066406 224.320312 91.546875 222.757812 91.070312 221.179688 C 90.589844 219.601562 90.152344 218.011719 89.75 216.414062 C 89.351562 214.816406 88.988281 213.207031 88.667969 211.589844 C 88.347656 209.972656 88.066406 208.347656 87.824219 206.71875 C 87.582031 205.089844 87.378906 203.453125 87.21875 201.8125 C 87.054688 200.171875 86.933594 198.527344 86.855469 196.882812 C 86.773438 195.234375 86.734375 193.585938 86.734375 191.9375 C 86.734375 190.289062 86.773438 188.640625 86.855469 186.996094 C 86.933594 185.347656 87.054688 183.707031 87.21875 182.066406 C 87.378906 180.425781 87.582031 178.789062 87.824219 177.15625 C 88.066406 175.527344 88.347656 173.902344 88.667969 172.285156 C 88.988281 170.667969 89.351562 169.0625 89.75 167.460938 C 90.152344 165.863281 90.589844 164.273438 91.070312 162.699219 C 91.546875 161.121094 92.066406 159.554688 92.621094 158.003906 C 93.175781 156.449219 93.769531 154.914062 94.398438 153.390625 C 95.03125 151.867188 95.699219 150.359375 96.402344 148.871094 C 97.109375 147.378906 97.847656 145.90625 98.625 144.453125 C 99.402344 143 100.214844 141.566406 101.0625 140.152344 C 101.910156 138.738281 102.792969 137.347656 103.707031 135.976562 C 104.625 134.605469 105.574219 133.257812 106.554688 131.933594 C 107.539062 130.609375 108.550781 129.308594 109.597656 128.035156 C 110.644531 126.761719 111.71875 125.511719 112.828125 124.292969 C 113.933594 123.070312 115.070312 121.875 116.234375 120.710938 C 117.402344 119.546875 118.59375 118.410156 119.816406 117.300781 C 121.039062 116.195312 122.285156 115.117188 123.558594 114.070312 C 124.835938 113.027344 126.132812 112.011719 127.457031 111.03125 C 128.78125 110.046875 130.128906 109.097656 131.5 108.183594 C 132.871094 107.269531 134.261719 106.386719 135.675781 105.539062 C 137.089844 104.691406 138.523438 103.878906 139.980469 103.101562 C 141.433594 102.324219 142.90625 101.582031 144.394531 100.878906 C 145.886719 100.171875 147.390625 99.507812 148.914062 98.875 C 150.4375 98.246094 151.976562 97.652344 153.527344 97.09375 C 155.082031 96.539062 156.644531 96.023438 158.222656 95.542969 C 159.800781 95.066406 161.390625 94.625 162.988281 94.226562 C 164.585938 93.824219 166.195312 93.464844 167.8125 93.144531 C 169.429688 92.820312 171.050781 92.539062 172.683594 92.296875 C 174.3125 92.054688 175.949219 91.855469 177.589844 91.691406 C 179.230469 91.53125 180.875 91.410156 182.519531 91.328125 C 184.167969 91.246094 185.816406 91.207031 187.464844 91.207031 C 189.113281 91.210938 190.757812 91.25 192.40625 91.332031 C 194.050781 91.417969 195.695312 91.539062 197.332031 91.703125 C 198.972656 91.867188 200.609375 92.070312 202.238281 92.3125 C 203.867188 92.554688 205.492188 92.839844 207.109375 93.160156 C 208.722656 93.484375 210.332031 93.847656 211.929688 94.246094 C 213.527344 94.648438 215.113281 95.089844 216.691406 95.570312 C 218.269531 96.050781 219.832031 96.566406 221.382812 97.121094 C 222.933594 97.679688 224.472656 98.273438 225.996094 98.90625 C 227.515625 99.535156 229.023438 100.203125 230.511719 100.910156 C 232 101.613281 233.472656 102.355469 234.925781 103.132812 C 236.378906 103.910156 237.8125 104.722656 239.226562 105.570312 C 240.640625 106.417969 242.03125 107.300781 243.402344 108.21875 C 244.769531 109.132812 246.117188 110.082031 247.441406 111.0625 C 248.765625 112.046875 250.0625 113.058594 251.335938 114.105469 C 252.609375 115.152344 253.859375 116.226562 255.078125 117.335938 C 256.300781 118.441406 257.492188 119.578125 258.660156 120.742188 C 259.824219 121.910156 260.960938 123.101562 262.066406 124.324219 C 263.175781 125.542969 264.25 126.792969 265.296875 128.066406 C 266.339844 129.339844 267.355469 130.636719 268.335938 131.960938 C 269.320312 133.285156 270.269531 134.632812 271.183594 136 C 272.101562 137.371094 272.980469 138.761719 273.828125 140.175781 C 274.679688 141.589844 275.492188 143.023438 276.269531 144.476562 C 277.046875 145.929688 277.785156 147.398438 278.492188 148.890625 C 279.199219 150.378906 279.867188 151.886719 280.496094 153.40625 C 281.128906 154.929688 281.722656 156.464844 282.277344 158.019531 C 282.835938 159.570312 283.351562 161.132812 283.832031 162.710938 C 284.3125 164.285156 284.753906 165.875 285.152344 167.472656 C 285.554688 169.070312 285.917969 170.679688 286.242188 172.292969 C 286.5625 173.910156 286.847656 175.535156 287.089844 177.164062 C 287.332031 178.792969 287.535156 180.429688 287.699219 182.070312 C 287.863281 183.707031 287.984375 185.351562 288.066406 186.996094 C 288.152344 188.644531 288.191406 190.289062 288.195312 191.9375 Z M 227.25 205.011719 L 198.65625 185.949219 L 198.65625 135.976562 C 198.65625 135.242188 198.585938 134.515625 198.441406 133.792969 C 198.296875 133.074219 198.085938 132.371094 197.804688 131.695312 C 197.523438 131.015625 197.179688 130.371094 196.769531 129.757812 C 196.359375 129.148438 195.898438 128.582031 195.378906 128.0625 C 194.859375 127.542969 194.292969 127.078125 193.679688 126.671875 C 193.070312 126.261719 192.425781 125.917969 191.746094 125.636719 C 191.066406 125.355469 190.367188 125.144531 189.648438 125 C 188.925781 124.855469 188.199219 124.785156 187.464844 124.785156 C 186.730469 124.785156 186 124.855469 185.28125 125 C 184.558594 125.144531 183.859375 125.355469 183.179688 125.636719 C 182.5 125.917969 181.855469 126.261719 181.246094 126.671875 C 180.632812 127.078125 180.070312 127.542969 179.550781 128.0625 C 179.03125 128.582031 178.566406 129.148438 178.15625 129.757812 C 177.75 130.371094 177.40625 131.015625 177.125 131.695312 C 176.84375 132.371094 176.628906 133.074219 176.484375 133.792969 C 176.34375 134.515625 176.269531 135.242188 176.269531 135.976562 L 176.269531 191.9375 C 176.269531 192.859375 176.382812 193.765625 176.609375 194.660156 C 176.832031 195.554688 177.160156 196.40625 177.597656 197.21875 C 178.03125 198.03125 178.558594 198.777344 179.175781 199.460938 C 179.796875 200.144531 180.488281 200.738281 181.253906 201.25 L 214.832031 223.636719 C 215.445312 224.035156 216.089844 224.371094 216.765625 224.644531 C 217.441406 224.917969 218.140625 225.121094 218.859375 225.257812 C 219.574219 225.394531 220.300781 225.460938 221.03125 225.453125 C 221.761719 225.449219 222.484375 225.375 223.199219 225.226562 C 223.914062 225.082031 224.609375 224.867188 225.28125 224.582031 C 225.957031 224.300781 226.59375 223.957031 227.199219 223.546875 C 227.804688 223.140625 228.367188 222.675781 228.882812 222.160156 C 229.398438 221.640625 229.859375 221.078125 230.261719 220.472656 C 230.667969 219.863281 231.011719 219.222656 231.289062 218.546875 C 231.570312 217.875 231.78125 217.179688 231.925781 216.460938 C 232.066406 215.746094 232.140625 215.023438 232.144531 214.292969 C 232.144531 213.5625 232.074219 212.839844 231.9375 212.121094 C 231.796875 211.40625 231.589844 210.707031 231.3125 210.03125 C 231.035156 209.355469 230.695312 208.710938 230.296875 208.101562 C 229.894531 207.492188 229.4375 206.929688 228.921875 206.40625 C 228.410156 205.886719 227.851562 205.421875 227.25 205.011719 Z M 227.25 205.011719 "/></g></g></svg>