<svg xmlns="http://www.w3.org/2000/svg" xmlns:xlink="http://www.w3.org/1999/xlink" width="500" zoomAndPan="magnify" viewBox="0 0 375 374.999991" height="500" preserveAspectRatio="xMidYMid meet" version="1.2"><defs><clipPath id="a45b828792"><path d="M 37.5 37.5 L 337.5 37.5 L 337.5 337.5 L 37.5 337.5 Z M 37.5 37.5 "/></clipPath></defs><g id="88af60106a"><g clip-rule="nonzero" clip-path="url(#a45b828792)"><path style=" stroke:none;fill-rule:nonzero;fill:#989898;fill-opacity:1;" d="M 187.5 37.5 C 185.046875 37.5 182.589844 37.558594 180.140625 37.679688 C 177.6875 37.800781 175.242188 37.980469 172.796875 38.222656 C 170.355469 38.464844 167.917969 38.761719 165.492188 39.125 C 163.0625 39.484375 160.644531 39.902344 158.238281 40.382812 C 155.828125 40.859375 153.433594 41.398438 151.054688 41.996094 C 148.671875 42.589844 146.304688 43.246094 143.957031 43.957031 C 141.609375 44.671875 139.277344 45.441406 136.964844 46.269531 C 134.65625 47.09375 132.367188 47.980469 130.097656 48.917969 C 127.828125 49.859375 125.585938 50.851562 123.367188 51.902344 C 121.148438 52.953125 118.957031 54.054688 116.789062 55.210938 C 114.625 56.367188 112.488281 57.578125 110.382812 58.839844 C 108.277344 60.101562 106.207031 61.414062 104.164062 62.78125 C 102.125 64.144531 100.117188 65.554688 98.144531 67.019531 C 96.171875 68.480469 94.238281 69.992188 92.339844 71.546875 C 90.445312 73.105469 88.585938 74.707031 86.765625 76.355469 C 84.945312 78.007812 83.167969 79.699219 81.433594 81.433594 C 79.699219 83.167969 78.007812 84.945312 76.355469 86.765625 C 74.707031 88.585938 73.105469 90.445312 71.546875 92.339844 C 69.992188 94.238281 68.480469 96.171875 67.019531 98.144531 C 65.554688 100.117188 64.144531 102.125 62.78125 104.164062 C 61.414062 106.207031 60.101562 108.277344 58.839844 110.382812 C 57.578125 112.488281 56.367188 114.625 55.210938 116.789062 C 54.054688 118.957031 52.953125 121.148438 51.902344 123.367188 C 50.851562 125.585938 49.859375 127.828125 48.917969 130.097656 C 47.980469 132.367188 47.09375 134.65625 46.269531 136.964844 C 45.441406 139.277344 44.671875 141.609375 43.957031 143.957031 C 43.246094 146.304688 42.589844 148.671875 41.996094 151.054688 C 41.398438 153.433594 40.859375 155.828125 40.382812 158.238281 C 39.902344 160.644531 39.484375 163.0625 39.125 165.492188 C 38.761719 167.917969 38.464844 170.355469 38.222656 172.796875 C 37.980469 175.242188 37.800781 177.6875 37.679688 180.140625 C 37.558594 182.589844 37.5 185.046875 37.5 187.5 C 37.5 189.953125 37.558594 192.410156 37.679688 194.859375 C 37.800781 197.3125 37.980469 199.757812 38.222656 202.203125 C 38.464844 204.644531 38.761719 207.082031 39.125 209.507812 C 39.484375 211.9375 39.902344 214.355469 40.382812 216.761719 C 40.859375 219.171875 41.398438 221.566406 41.996094 223.945312 C 42.589844 226.328125 43.246094 228.695312 43.957031 231.042969 C 44.671875 233.390625 45.441406 235.722656 46.269531 238.035156 C 47.09375 240.34375 47.980469 242.632812 48.917969 244.902344 C 49.859375 247.171875 50.851562 249.414062 51.902344 251.632812 C 52.953125 253.851562 54.054688 256.042969 55.210938 258.210938 C 56.367188 260.375 57.578125 262.511719 58.839844 264.617188 C 60.101562 266.722656 61.414062 268.792969 62.78125 270.835938 C 64.144531 272.875 65.554688 274.882812 67.019531 276.855469 C 68.480469 278.828125 69.992188 280.761719 71.546875 282.660156 C 73.105469 284.554688 74.707031 286.414062 76.355469 288.234375 C 78.007812 290.054688 79.699219 291.832031 81.433594 293.566406 C 83.167969 295.300781 84.945312 296.992188 86.765625 298.644531 C 88.585938 300.292969 90.445312 301.894531 92.339844 303.453125 C 94.238281 305.007812 96.171875 306.519531 98.144531 307.980469 C 100.117188 309.445312 102.125 310.855469 104.164062 312.21875 C 106.207031 313.585938 108.277344 314.898438 110.382812 316.160156 C 112.488281 317.421875 114.625 318.632812 116.789062 319.789062 C 118.957031 320.945312 121.148438 322.046875 123.367188 323.097656 C 125.585938 324.148438 127.828125 325.140625 130.097656 326.082031 C 132.367188 327.019531 134.65625 327.90625 136.964844 328.730469 C 139.277344 329.558594 141.609375 330.328125 143.957031 331.042969 C 146.304688 331.753906 148.671875 332.40625 151.054688 333.003906 C 153.433594 333.601562 155.828125 334.140625 158.238281 334.617188 C 160.644531 335.097656 163.0625 335.515625 165.492188 335.875 C 167.917969 336.238281 170.355469 336.535156 172.796875 336.777344 C 175.242188 337.019531 177.6875 337.199219 180.140625 337.320312 C 182.589844 337.441406 185.046875 337.5 187.5 337.5 C 189.953125 337.5 192.410156 337.441406 194.859375 337.320312 C 197.3125 337.199219 199.757812 337.019531 202.203125 336.777344 C 204.644531 336.535156 207.082031 336.238281 209.507812 335.875 C 211.9375 335.515625 214.355469 335.097656 216.761719 334.617188 C 219.171875 334.140625 221.566406 333.601562 223.945312 333.003906 C 226.328125 332.40625 228.695312 331.753906 231.042969 331.039062 C 233.390625 330.328125 235.722656 329.558594 238.035156 328.730469 C 240.34375 327.90625 242.632812 327.019531 244.902344 326.082031 C 247.171875 325.140625 249.414062 324.148438 251.632812 323.097656 C 253.851562 322.046875 256.042969 320.945312 258.210938 319.789062 C 260.375 318.632812 262.511719 317.421875 264.617188 316.160156 C 266.722656 314.898438 268.792969 313.585938 270.835938 312.21875 C 272.875 310.855469 274.882812 309.445312 276.855469 307.980469 C 278.828125 306.519531 280.761719 305.007812 282.660156 303.453125 C 284.554688 301.894531 286.414062 300.292969 288.234375 298.644531 C 290.054688 296.992188 291.832031 295.300781 293.566406 293.566406 C 295.300781 291.832031 296.992188 290.054688 298.644531 288.234375 C 300.292969 286.414062 301.894531 284.554688 303.453125 282.660156 C 305.007812 280.761719 306.519531 278.828125 307.980469 276.855469 C 309.445312 274.882812 310.855469 272.875 312.21875 270.835938 C 313.585938 268.792969 314.898438 266.722656 316.160156 264.617188 C 317.421875 262.511719 318.632812 260.375 319.789062 258.210938 C 320.945312 256.042969 322.046875 253.851562 323.097656 251.632812 C 324.148438 249.414062 325.140625 247.171875 326.082031 244.902344 C 327.019531 242.632812 327.90625 240.34375 328.730469 238.035156 C 329.558594 235.722656 330.328125 233.390625 331.042969 231.042969 C 331.753906 228.695312 332.40625 226.328125 333.003906 223.945312 C 333.601562 221.566406 334.140625 219.171875 334.617188 216.761719 C 335.097656 214.355469 335.515625 211.9375 335.875 209.507812 C 336.238281 207.082031 336.535156 204.644531 336.777344 202.203125 C 337.019531 199.757812 337.199219 197.3125 337.320312 194.859375 C 337.441406 192.410156 337.5 189.953125 337.5 187.5 C 337.5 185.046875 337.4375 182.59375 337.320312 180.140625 C 337.199219 177.6875 337.015625 175.242188 336.777344 172.796875 C 336.535156 170.355469 336.234375 167.917969 335.875 165.492188 C 335.511719 163.0625 335.09375 160.644531 334.613281 158.238281 C 334.136719 155.832031 333.597656 153.4375 333 151.054688 C 332.402344 148.671875 331.75 146.308594 331.035156 143.960938 C 330.324219 141.609375 329.554688 139.28125 328.726562 136.96875 C 327.898438 134.65625 327.015625 132.367188 326.078125 130.101562 C 325.136719 127.832031 324.144531 125.589844 323.09375 123.371094 C 322.042969 121.152344 320.941406 118.960938 319.78125 116.792969 C 318.625 114.628906 317.414062 112.496094 316.152344 110.390625 C 314.890625 108.28125 313.578125 106.210938 312.214844 104.167969 C 310.851562 102.128906 309.4375 100.121094 307.976562 98.148438 C 306.511719 96.179688 305.003906 94.242188 303.445312 92.347656 C 301.886719 90.449219 300.285156 88.589844 298.636719 86.769531 C 296.988281 84.953125 295.296875 83.175781 293.558594 81.441406 C 291.824219 79.703125 290.046875 78.011719 288.230469 76.363281 C 286.410156 74.714844 284.550781 73.113281 282.652344 71.554688 C 280.757812 69.996094 278.820312 68.488281 276.851562 67.023438 C 274.878906 65.5625 272.871094 64.148438 270.832031 62.785156 C 268.789062 61.421875 266.714844 60.109375 264.609375 58.847656 C 262.503906 57.585938 260.371094 56.375 258.207031 55.21875 C 256.039062 54.058594 253.847656 52.957031 251.628906 51.90625 C 249.410156 50.855469 247.167969 49.863281 244.898438 48.921875 C 242.632812 47.984375 240.34375 47.101562 238.03125 46.273438 C 235.71875 45.445312 233.390625 44.675781 231.039062 43.964844 C 228.691406 43.25 226.328125 42.59375 223.945312 42 C 221.5625 41.402344 219.167969 40.863281 216.761719 40.386719 C 214.355469 39.90625 211.9375 39.488281 209.507812 39.125 C 207.082031 38.765625 204.644531 38.464844 202.203125 38.222656 C 199.757812 37.984375 197.3125 37.800781 194.859375 37.679688 C 192.40625 37.5625 189.953125 37.5 187.5 37.5 Z M 280.828125 163.640625 C 280.566406 164.488281 280.175781 165.273438 279.660156 165.996094 C 279.140625 166.722656 278.523438 167.34375 277.808594 167.867188 C 277.089844 168.390625 276.308594 168.789062 275.460938 169.058594 C 274.613281 169.332031 273.746094 169.460938 272.859375 169.453125 L 264.515625 169.453125 L 264.515625 253.78125 C 264.515625 254.617188 264.472656 255.453125 264.390625 256.285156 C 264.308594 257.117188 264.183594 257.941406 264.019531 258.761719 C 263.855469 259.582031 263.652344 260.394531 263.410156 261.195312 C 263.164062 261.992188 262.882812 262.78125 262.5625 263.554688 C 262.242188 264.324219 261.886719 265.082031 261.492188 265.816406 C 261.097656 266.554688 260.664062 267.273438 260.199219 267.96875 C 259.734375 268.664062 259.238281 269.332031 258.707031 269.980469 C 258.175781 270.625 257.617188 271.246094 257.023438 271.835938 C 256.433594 272.429688 255.8125 272.988281 255.167969 273.519531 C 254.519531 274.050781 253.851562 274.546875 253.15625 275.011719 C 252.460938 275.476562 251.742188 275.910156 251.003906 276.304688 C 250.269531 276.699219 249.511719 277.054688 248.742188 277.375 C 247.96875 277.695312 247.179688 277.976562 246.382812 278.222656 C 245.582031 278.464844 244.769531 278.667969 243.949219 278.832031 C 243.128906 278.996094 242.304688 279.121094 241.472656 279.203125 C 240.640625 279.285156 239.804688 279.328125 238.96875 279.328125 L 213.796875 279.328125 C 213.472656 279.324219 213.152344 279.292969 212.832031 279.226562 C 212.515625 279.160156 212.207031 279.066406 211.910156 278.9375 C 211.609375 278.8125 211.324219 278.660156 211.058594 278.476562 C 210.789062 278.296875 210.539062 278.089844 210.3125 277.859375 C 210.082031 277.628906 209.878906 277.378906 209.699219 277.105469 C 209.519531 276.835938 209.371094 276.550781 209.246094 276.25 C 209.125 275.949219 209.03125 275.640625 208.96875 275.324219 C 208.90625 275.003906 208.875 274.683594 208.875 274.359375 L 208.875 230.25 C 208.875 229.496094 208.800781 228.75 208.652344 228.011719 C 208.503906 227.273438 208.285156 226.554688 207.996094 225.859375 C 207.707031 225.160156 207.351562 224.5 206.933594 223.875 C 206.515625 223.246094 206.039062 222.667969 205.503906 222.132812 C 204.972656 221.601562 204.394531 221.125 203.765625 220.707031 C 203.140625 220.289062 202.480469 219.933594 201.78125 219.644531 C 201.085938 219.355469 200.367188 219.136719 199.628906 218.988281 C 198.890625 218.839844 198.144531 218.765625 197.390625 218.765625 L 177.609375 218.765625 C 176.855469 218.765625 176.109375 218.839844 175.371094 218.988281 C 174.632812 219.136719 173.914062 219.355469 173.21875 219.644531 C 172.519531 219.933594 171.859375 220.289062 171.234375 220.707031 C 170.605469 221.125 170.027344 221.601562 169.496094 222.132812 C 168.960938 222.667969 168.484375 223.246094 168.066406 223.875 C 167.648438 224.5 167.292969 225.160156 167.003906 225.859375 C 166.714844 226.554688 166.496094 227.273438 166.347656 228.011719 C 166.199219 228.75 166.125 229.496094 166.125 230.25 L 166.125 274.359375 C 166.125 274.683594 166.09375 275.003906 166.03125 275.324219 C 165.96875 275.640625 165.875 275.949219 165.753906 276.25 C 165.628906 276.550781 165.480469 276.835938 165.300781 277.105469 C 165.121094 277.378906 164.917969 277.628906 164.6875 277.859375 C 164.460938 278.089844 164.210938 278.296875 163.941406 278.476562 C 163.675781 278.660156 163.390625 278.8125 163.089844 278.9375 C 162.792969 279.066406 162.484375 279.160156 162.167969 279.226562 C 161.847656 279.292969 161.527344 279.324219 161.203125 279.328125 L 136.03125 279.328125 C 135.195312 279.328125 134.359375 279.285156 133.527344 279.203125 C 132.695312 279.121094 131.871094 278.996094 131.050781 278.832031 C 130.230469 278.667969 129.417969 278.464844 128.617188 278.222656 C 127.820312 277.976562 127.03125 277.695312 126.257812 277.375 C 125.488281 277.054688 124.730469 276.699219 123.996094 276.304688 C 123.257812 275.910156 122.539062 275.476562 121.84375 275.011719 C 121.148438 274.546875 120.480469 274.050781 119.832031 273.519531 C 119.1875 272.988281 118.566406 272.429688 117.976562 271.835938 C 117.382812 271.246094 116.824219 270.625 116.292969 269.980469 C 115.761719 269.332031 115.265625 268.664062 114.800781 267.96875 C 114.332031 267.273438 113.902344 266.554688 113.507812 265.816406 C 113.113281 265.082031 112.757812 264.324219 112.4375 263.554688 C 112.117188 262.78125 111.835938 261.992188 111.589844 261.195312 C 111.347656 260.394531 111.144531 259.582031 110.980469 258.761719 C 110.816406 257.941406 110.691406 257.117188 110.609375 256.285156 C 110.527344 255.453125 110.484375 254.617188 110.484375 253.78125 L 110.484375 169.453125 L 102.140625 169.453125 C 101.253906 169.453125 100.394531 169.320312 99.550781 169.046875 C 98.710938 168.773438 97.929688 168.375 97.214844 167.855469 C 96.5 167.335938 95.882812 166.714844 95.363281 166 C 94.84375 165.285156 94.449219 164.503906 94.179688 163.660156 C 93.90625 162.820312 93.773438 161.957031 93.777344 161.070312 C 93.78125 160.1875 93.921875 159.324219 94.199219 158.484375 C 94.476562 157.644531 94.875 156.867188 95.398438 156.15625 C 95.925781 155.441406 96.546875 154.828125 97.265625 154.3125 L 172.6875 100.453125 C 173.761719 99.6875 174.886719 99.007812 176.066406 98.414062 C 177.246094 97.824219 178.464844 97.324219 179.722656 96.921875 C 180.980469 96.519531 182.261719 96.214844 183.5625 96.011719 C 184.867188 95.808594 186.179688 95.707031 187.5 95.707031 C 188.820312 95.707031 190.132812 95.808594 191.4375 96.011719 C 192.738281 96.214844 194.019531 96.519531 195.277344 96.921875 C 196.535156 97.324219 197.753906 97.824219 198.933594 98.414062 C 200.109375 99.007812 201.238281 99.6875 202.3125 100.453125 L 277.734375 154.3125 C 278.457031 154.824219 279.078125 155.433594 279.605469 156.144531 C 280.132812 156.855469 280.53125 157.628906 280.8125 158.46875 C 281.089844 159.308594 281.230469 160.167969 281.234375 161.054688 C 281.234375 161.9375 281.101562 162.800781 280.828125 163.640625 Z M 280.828125 163.640625 "/></g></g></svg>